# xmcd CD database file
# Copyright (C) 1996 Ti Kan
#
# Track frame offsets:
#	150
#	22702
#	42812
#	63960
#	85982
#	103215
#	123532
#	141237
#	158790
#	176505
#	200970
#	212237
#	233930
#	253592
#	274797
#	292595
#	302365
# Disc length: 4280 seconds
#
# Revision: 4
# Processed by: cddbd v1.4PL0 Copyright (c) Steve Scherf et al.
# Submitted via: CDCOPY 4.900
#
DISCID=ee10b611
DTITLE=Angie Stone - Mahogany Soul
DYEAR=2001
DGENRE=Blues
TTITLE0=Soul Insurance
TTITLE1=Brotha
TTITLE2=Pissed Off
TTITLE3=More Than a Woman (with Calvin)
TTITLE4=Snowflakes
TTITLE5=Wish I Didn't Miss You
TTITLE6=Easier Said Than Done
TTITLE7=Bottles and Cans
TTITLE8=The Ingredients of Love (with Musiq Soulchild)
TTITLE9=What U Dyin' For
TTITLE10=Makings of You (Interlude)
TTITLE11=Mad Issues
TTITLE12=If It Wasn't
TTITLE13=20 Dollars
TTITLE14=Life Goes On
TTITLE15=The Heat (Outro)
TTITLE16=Time of the Month
EXTD=YEAR: 2001 ID3G:   0
EXTT0=
EXTT1=
EXTT2=
EXTT3=
EXTT4=
EXTT5=
EXTT6=
EXTT7=
EXTT8=
EXTT9=
EXTT10=
EXTT11=
EXTT12=
EXTT13=
EXTT14=
EXTT15=
EXTT16=
PLAYORDER=
